<?xml version="1.0" standalone="no"?>
<!DOCTYPE svg PUBLIC "-//W3C//DTD SVG 20010904//EN"
 "http://www.w3.org/TR/2001/REC-SVG-20010904/DTD/svg10.dtd">
<svg version="1.0" xmlns="http://www.w3.org/2000/svg"
 width="200.000000pt" height="232.000000pt" viewBox="0 0 200.000000 232.000000"
 preserveAspectRatio="xMidYMid meet">

<g transform="translate(0.000000,232.000000) scale(0.100000,-0.100000)"
fill="#000000" stroke="none">
<path d="M1605 2270 c-91 -37 -99 -178 -12 -230 115 -71 249 69 174 181 -12
18 -34 39 -47 46 -28 14 -85 16 -115 3z"/>
<path d="M144 2060 c-59 -24 -72 -104 -25 -151 41 -40 91 -40 132 0 74 75 -9
191 -107 151z"/>
<path d="M1323 1422 c-19 -3 -23 -10 -23 -43 0 -35 -3 -39 -25 -39 -16 0 -25
-6 -25 -15 0 -9 9 -15 25 -15 l25 0 0 -104 c0 -89 3 -107 21 -130 16 -20 29
-26 60 -26 32 0 39 3 39 20 0 14 -7 20 -23 20 -40 0 -47 18 -47 122 l0 98 40
0 c29 0 40 4 40 15 0 11 -11 15 -39 15 -40 0 -40 0 -43 43 -3 37 -6 42 -25 39z"/>
<path d="M109 1182 c-4 -179 -8 -195 -56 -213 -32 -12 -30 -39 3 -39 16 0 39
13 59 33 41 41 47 77 43 252 -3 124 -4 130 -24 133 -22 3 -22 0 -25 -166z"/>
<path d="M460 1253 c0 -58 -5 -108 -13 -123 -25 -49 -104 -52 -125 -5 -7 14
-12 68 -12 120 0 95 0 95 -25 95 l-25 0 0 -100 c0 -109 14 -161 48 -179 32
-17 91 -13 122 9 28 20 28 20 33 0 3 -12 14 -20 26 -20 21 0 21 3 19 148 -3
144 -3 147 -25 150 -23 3 -23 1 -23 -95z"/>
<path d="M720 1343 c-8 -3 -25 -15 -37 -26 l-23 -20 0 21 c0 17 -6 22 -25 22
l-25 0 0 -205 0 -205 25 0 c25 0 25 1 25 81 l0 80 26 -20 c34 -27 98 -27 140
-2 62 38 82 159 38 227 -29 44 -94 65 -144 47z m85 -56 c33 -27 45 -100 25
-147 -25 -60 -104 -75 -146 -28 -14 15 -19 36 -19 85 0 59 3 67 28 89 35 30
78 31 112 1z"/>
<path d="M1549 1327 c-86 -57 -93 -193 -13 -256 21 -17 41 -21 93 -21 73 0 95
9 86 32 -5 13 -13 14 -43 6 -69 -19 -142 22 -142 79 0 21 4 22 103 25 l102 3
-4 35 c-10 103 -101 151 -182 97z m116 -32 c14 -13 25 -33 25 -45 0 -18 -6
-20 -80 -20 -92 0 -101 11 -51 61 36 36 73 37 106 4z"/>
<path d="M1889 1319 l-29 -31 0 26 c0 19 -5 26 -20 26 -19 0 -20 -7 -20 -145
l0 -145 25 0 c25 0 25 0 25 99 0 108 14 142 65 155 16 4 25 13 25 26 0 31 -38
25 -71 -11z"/>
<path d="M940 1331 c0 -4 23 -63 50 -130 28 -67 50 -131 50 -143 0 -12 -19
-40 -45 -64 -29 -28 -43 -49 -39 -59 8 -19 9 -19 46 2 43 26 79 90 142 251 31
78 56 144 56 147 0 3 -11 5 -24 5 -22 0 -28 -10 -61 -111 -21 -61 -41 -107
-45 -102 -4 4 -24 54 -45 111 -33 90 -40 102 -61 102 -13 0 -24 -4 -24 -9z"/>
</g>
</svg>
