<?xml version="1.0" standalone="no"?>
<!DOCTYPE svg PUBLIC "-//W3C//DTD SVG 20010904//EN"
 "http://www.w3.org/TR/2001/REC-SVG-20010904/DTD/svg10.dtd">
<svg version="1.0" xmlns="http://www.w3.org/2000/svg"
 width="225.000000pt" height="225.000000pt" viewBox="0 0 225.000000 225.000000"
 preserveAspectRatio="xMidYMid meet">

<g transform="translate(0.000000,225.000000) scale(0.100000,-0.100000)"
fill="#000000" stroke="none">
<path d="M995 2239 c-160 -17 -364 -93 -506 -190 -81 -55 -198 -166 -260 -248
-65 -87 -153 -264 -184 -374 -105 -372 -4 -785 263 -1069 422 -450 1135 -472
1584 -50 302 283 425 724 313 1120 -31 109 -119 287 -184 373 -186 244 -476
407 -782 439 -112 11 -129 11 -244 -1z m-22 -731 c94 -45 160 -111 206 -208
34 -71 36 -81 36 -175 0 -94 -2 -104 -36 -175 -46 -98 -111 -163 -209 -209
-71 -34 -81 -36 -175 -36 -94 0 -104 2 -175 36 -95 46 -160 111 -208 208 -35
71 -37 80 -37 176 0 96 2 105 37 176 44 89 112 160 191 200 79 41 119 49 215
45 68 -3 94 -9 155 -38z m572 -17 c42 -24 91 -101 117 -185 31 -100 31 -262 0
-362 -45 -146 -133 -228 -220 -205 -104 28 -182 194 -182 386 0 141 37 258
105 334 56 62 111 72 180 32z m289 -38 c29 -58 40 -148 40 -328 0 -181 -11
-270 -41 -328 -18 -35 -43 -32 -61 7 -59 121 -52 589 10 663 17 21 36 15 52
-14z"/>
</g>
</svg>
