<?xml version="1.0" standalone="no"?>
<!DOCTYPE svg PUBLIC "-//W3C//DTD SVG 20010904//EN"
 "http://www.w3.org/TR/2001/REC-SVG-20010904/DTD/svg10.dtd">
<svg version="1.0" xmlns="http://www.w3.org/2000/svg"
 width="275.000000pt" height="183.000000pt" viewBox="0 0 275.000000 183.000000"
 preserveAspectRatio="xMidYMid meet">
<metadata>
Created by potrace 1.10, written by Peter Selinger 2001-2011
</metadata>
<g transform="translate(0.000000,183.000000) scale(0.100000,-0.100000)"
fill="#000000" stroke="none">
<path d="M185 900 l0 -640 613 0 612 0 0 640 0 640 -612 0 -613 0 0 -640z
m1183 530 l3 -55 -28 27 c-73 70 -173 64 -261 -16 -13 -11 -57 -65 -97 -119
-81 -108 -78 -108 -109 -19 -33 92 -114 171 -177 172 -41 0 -98 -18 -117 -37
-7 -7 -18 -13 -23 -13 -17 0 -180 -163 -254 -254 -66 -81 -85 -91 -80 -43 1
12 3 111 4 219 l1 198 498 2 c274 2 529 1 568 -2 l69 -5 3 -55z m-54 -39 c26
-27 31 -39 31 -80 0 -46 1 -48 23 -40 13 5 22 5 22 -1 0 -6 -7 -10 -15 -10 -8
0 -37 -22 -65 -50 -28 -27 -56 -50 -64 -50 -17 0 -29 -27 -15 -35 18 -12 54 7
90 46 24 25 45 39 60 38 l24 -1 -25 -11 c-14 -7 -42 -29 -62 -50 -31 -32 -43
-38 -70 -35 -26 2 -33 8 -32 23 0 14 -7 20 -24 22 -31 1 -79 48 -94 90 -7 18
-15 33 -19 33 -18 0 -100 -107 -137 -178 -43 -83 -69 -164 -102 -326 -25 -120
-25 -174 -3 -222 16 -33 20 -35 52 -30 61 10 173 92 346 255 54 51 101 89 103
82 8 -25 -221 -252 -331 -327 -138 -93 -229 -98 -272 -13 -15 28 -38 206 -28
221 2 5 0 15 -5 24 -7 13 -19 2 -60 -54 -74 -99 -189 -205 -247 -227 -43 -17
-51 -17 -88 -4 -75 26 -106 102 -70 176 31 66 78 61 154 -14 45 -44 48 -45 81
-34 78 26 150 105 217 238 110 220 123 361 40 444 -27 27 -54 24 -138 -16
-123 -59 -235 -162 -308 -282 -14 -23 -23 -29 -33 -23 -21 13 -4 40 110 172
142 166 262 258 335 258 66 0 133 -83 174 -216 l27 -87 58 87 c69 104 156 200
205 227 53 28 114 20 155 -20z m-590 -136 c6 -11 13 -22 16 -25 3 -3 7 -16 8
-30 2 -14 9 -31 15 -38 7 -9 7 -16 -1 -24 -7 -7 -12 -31 -12 -54 0 -24 -4 -46
-10 -49 -5 -3 -10 -15 -10 -26 0 -10 -4 -27 -9 -37 -5 -9 -33 -64 -61 -122
-38 -75 -67 -120 -105 -157 -66 -65 -100 -71 -147 -26 -62 58 -106 71 -160 48
-17 -7 -18 3 -18 120 0 123 1 127 20 122 22 -6 37 6 77 61 56 78 172 180 240
214 38 18 69 36 71 39 1 3 19 6 39 5 25 -1 39 -7 47 -21z m371 -56 c3 -10 21
-28 38 -40 18 -12 44 -33 59 -47 35 -32 78 -31 129 2 48 32 51 32 47 -1 -2
-23 -9 -29 -42 -35 -21 -5 -45 -16 -52 -26 -15 -20 -16 -161 -1 -180 12 -16
-23 -55 -143 -156 -129 -109 -194 -155 -226 -162 -26 -5 -32 -2 -42 21 -13 27
-17 167 -5 178 4 4 8 26 10 50 3 23 9 46 14 52 5 5 9 21 9 35 0 15 3 30 8 34
4 4 7 11 7 14 2 18 40 122 62 166 31 61 90 126 109 119 7 -2 16 -13 19 -24z
m305 -138 c0 -5 -23 -15 -51 -22 -58 -15 -73 -36 -41 -57 26 -17 28 -35 7 -52
-16 -14 -20 -40 -6 -40 5 0 22 20 38 45 15 25 32 45 36 45 11 0 -56 -103 -70
-107 -6 -2 -16 5 -22 15 -8 15 -6 25 9 42 20 23 20 23 -1 38 -13 9 -19 23 -17
39 3 29 15 37 73 51 22 5 41 10 43 11 1 0 2 -3 2 -8z m-32 -493 l-3 -263 -563
-3 c-445 -2 -563 0 -567 10 -7 20 -13 167 -7 173 3 3 17 -2 30 -11 31 -21 137
-23 172 -4 45 24 108 80 175 157 65 74 65 74 75 48 6 -15 10 -41 10 -59 0 -34
13 -83 33 -124 27 -56 126 -69 214 -27 74 34 222 155 328 268 50 53 93 96 98
96 4 1 6 -117 5 -261z"/>
</g>
</svg>
