<?xml version="1.0" standalone="no"?>
<!DOCTYPE svg PUBLIC "-//W3C//DTD SVG 20010904//EN"
 "http://www.w3.org/TR/2001/REC-SVG-20010904/DTD/svg10.dtd">
<svg version="1.0" xmlns="http://www.w3.org/2000/svg"
 width="225.000000pt" height="225.000000pt" viewBox="0 0 225.000000 225.000000"
 preserveAspectRatio="xMidYMid meet">

<g transform="translate(0.000000,225.000000) scale(0.100000,-0.100000)"
fill="#000000" stroke="none">
<path d="M1108 2092 c-8 -23 -103 -81 -169 -106 -114 -42 -214 -57 -396 -57
-89 0 -167 2 -175 3 -11 3 -13 -100 -15 -572 -3 -647 -5 -634 74 -770 49 -85
195 -229 305 -302 83 -55 257 -146 346 -180 42 -17 44 -16 120 14 176 71 355
183 476 298 87 83 137 152 182 250 l29 65 3 600 3 600 -179 -3 c-148 -3 -195
0 -276 17 -109 22 -223 71 -278 120 -38 33 -44 36 -50 23z m20 -227 c1 -1 7
-16 12 -34 7 -26 6 -31 -8 -31 -10 0 -23 9 -30 20 -14 22 -51 27 -70 8 -19
-19 -15 -82 7 -102 22 -20 66 -13 81 13 7 13 11 14 22 3 21 -22 -33 -62 -83
-62 -103 0 -138 145 -44 186 25 11 100 11 113 -1z m387 0 c59 -24 74 -101 29
-154 -22 -27 -32 -31 -75 -31 -41 0 -54 5 -73 25 -48 52 -35 133 26 160 42 18
51 18 93 0z m-745 -10 c0 -8 -7 -15 -15 -15 -13 0 -15 -11 -13 -62 3 -71 16
-81 53 -44 42 42 59 28 33 -29 -11 -23 -16 -25 -85 -25 -58 0 -73 3 -73 15 0
8 5 15 10 15 6 0 10 28 10 65 0 37 -4 65 -10 65 -5 0 -10 7 -10 15 0 11 12 15
50 15 38 0 50 -4 50 -15z m170 0 c0 -8 -4 -15 -10 -15 -6 0 -10 -28 -10 -65 0
-37 4 -65 10 -65 6 0 10 -7 10 -15 0 -11 -12 -15 -45 -15 -33 0 -45 4 -45 15
0 8 5 15 10 15 6 0 10 28 10 65 0 37 -4 65 -10 65 -5 0 -10 7 -10 15 0 11 12
15 45 15 33 0 45 -4 45 -15z m399 -12 c17 -36 -1 -51 -28 -24 -28 28 -71 28
-71 1 0 -21 15 -27 25 -10 13 22 25 8 25 -30 0 -29 -4 -40 -15 -40 -8 0 -15 7
-15 15 0 8 -4 15 -10 15 -5 0 -10 -13 -10 -30 0 -21 5 -30 16 -30 21 0 57 20
67 36 22 37 38 -7 17 -47 -9 -16 -22 -19 -90 -19 -64 0 -80 3 -80 15 0 8 5 15
10 15 6 0 10 28 10 65 0 37 -4 65 -10 65 -5 0 -10 7 -10 15 0 12 15 15 78 15
76 0 79 -1 91 -27z m-169 -253 c0 -5 -4 -10 -10 -10 -5 0 -10 5 -10 10 0 6 5
10 10 10 6 0 10 -4 10 -10z m-33 -47 c-3 -10 -5 -4 -5 12 0 17 2 24 5 18 2 -7
2 -21 0 -30z m-182 -13 c27 -7 28 -8 5 -9 -14 0 -36 7 -50 15 -17 10 -18 13
-5 8 11 -3 34 -10 50 -14z m420 -10 c4 -7 -3 -9 -19 -6 -14 3 -28 0 -31 -5 -4
-5 -12 -9 -18 -9 -19 1 25 30 44 30 10 0 21 -5 24 -10z m-460 -70 l20 -9 -20
0 c-11 0 -27 4 -35 9 -13 9 -13 10 0 9 8 0 24 -4 35 -9z m488 3 c-7 -2 -21 -2
-30 0 -10 3 -4 5 12 5 17 0 24 -2 18 -5z m-329 -247 c42 -13 53 -13 93 1 43
15 54 15 137 -1 50 -9 120 -18 154 -20 35 -1 67 -7 70 -13 4 -6 16 -13 27 -17
44 -15 70 -53 155 -231 50 -102 90 -188 90 -190 0 -3 -128 -5 -285 -5 -223 0
-286 -3 -292 -13 -38 -62 -160 -62 -208 0 -8 10 -76 13 -291 15 l-281 3 88
189 c86 184 97 201 149 228 14 7 28 17 31 22 4 5 42 11 86 13 43 2 101 10 128
18 66 18 92 18 149 1z m-130 -724 c-9 -20 -19 -46 -22 -57 -10 -39 -22 -46
-48 -28 -19 12 -22 18 -13 30 7 7 9 16 6 20 -4 3 -9 -2 -13 -11 -7 -20 -13
-20 -39 -1 -18 15 -17 17 35 70 l53 54 29 -20 c28 -20 28 -20 12 -57z m470 29
l48 -49 -24 -16 c-21 -15 -24 -15 -35 -1 -6 9 -14 12 -17 6 -3 -5 0 -11 6 -14
10 -3 10 -7 -1 -20 -23 -28 -35 -19 -65 49 -28 63 -29 65 -10 79 31 23 47 18
98 -34z m-352 -26 c22 -9 30 -32 18 -55 -6 -10 -10 -35 -10 -55 l0 -37 -46 7
c-68 10 -77 15 -69 39 3 11 11 44 17 72 11 50 12 51 42 44 17 -4 39 -11 48
-15z m212 19 c20 -8 21 -43 1 -50 -8 -4 -23 0 -32 7 -15 12 -16 12 -10 -4 4
-11 10 -30 13 -43 3 -13 10 -24 15 -24 5 0 6 6 3 14 -3 9 3 17 16 21 25 8 25
7 34 -22 9 -28 -30 -56 -71 -51 -23 2 -31 11 -46 53 -21 56 -11 91 27 98 12 2
24 5 28 6 3 0 13 -2 22 -5z m-109 -97 c-1 -70 -1 -72 -27 -75 -26 -3 -26 -3
-30 72 l-3 76 30 0 30 0 0 -73z"/>
<path d="M1430 1814 c-14 -36 -12 -56 6 -82 31 -44 76 -19 76 43 0 43 -16 65
-48 65 -17 0 -28 -8 -34 -26z"/>
<path d="M886 1157 c6 -16 -94 -229 -113 -240 -22 -13 -4 -27 36 -27 45 0 53
6 39 30 -19 30 -3 50 42 50 36 0 40 -3 40 -24 0 -14 -4 -28 -10 -31 -24 -15
-5 -22 65 -24 59 -2 75 1 75 12 0 8 -6 19 -13 25 -7 6 -24 63 -37 127 l-25
115 -52 0 c-39 0 -51 -3 -47 -13z m34 -84 c0 -21 3 -48 6 -60 6 -21 3 -23 -30
-23 -20 0 -36 2 -36 4 0 16 44 116 51 116 5 0 9 -17 9 -37z"/>
<path d="M1324 1159 c-3 -6 -22 -17 -40 -25 -39 -17 -45 -34 -10 -34 20 0 25
-6 29 -42 4 -24 9 -64 13 -90 5 -40 4 -48 -10 -48 -9 0 -16 -7 -16 -15 0 -12
16 -15 80 -15 80 0 97 9 66 34 -7 6 -26 64 -41 129 -23 96 -31 117 -46 117
-10 0 -21 -5 -25 -11z"/>
<path d="M1089 784 c-32 -33 -32 -34 -14 -54 22 -24 67 -26 89 -4 21 20 21 21
-13 59 l-29 33 -33 -34z"/>
<path d="M886 483 c-6 -14 -5 -15 5 -6 7 7 10 15 7 18 -3 3 -9 -2 -12 -12z"/>
<path d="M1020 444 c0 -8 5 -12 10 -9 6 3 10 10 10 16 0 5 -4 9 -10 9 -5 0
-10 -7 -10 -16z"/>
<path d="M1012 380 c0 -14 2 -19 5 -12 2 6 2 18 0 25 -3 6 -5 1 -5 -13z"/>
</g>
</svg>
